<svg xmlns="http://www.w3.org/2000/svg"  viewBox="0 0 48 48" width="48px" height="48px"><path fill="#74cccf" d="M43.79,18.76c-0.67-2.36-1.62-4.71-3.12-6.63c-5.2-6.66-11.49-8.29-15.13-8.53 c-4.51-0.3-9.87,1.09-15.37,5.82C5.62,13.34,4.69,17.49,4.2,21.6c-0.48,4.03-0.69,8.33,1.49,11.73c0.75,1.19,1.72,2.23,2.68,3.24 c1.83,1.93,3.73,3.83,5.93,5.29c2.21,1.46,4.64,2.57,7.28,2.55c0.49,0,0.98,0.01,1.47,0c6.28-0.13,12.56-2.86,16.66-7.71 C43.82,31.86,45.55,24.9,43.79,18.76z M36.34,32.11c-0.7,1.48-1.68,2.79-2.73,4.04c-3.05,3.66-6.85,6.93-11.43,8.15 c-0.43,0.12-0.95,0.18-1.24-0.15c-0.21-0.23-0.22-0.57-0.21-0.88c0.05-1.2,0.29-2.43-0.01-3.59c-0.62-2.4-3.34-3.52-5.52-4.64 c-3.55-1.82-5.4-6.39-5.45-10.43C9.7,20.58,11.6,16.59,14.66,14c1.13-0.96,2.4-1.73,3.74-2.36c2.78-1.32,5.97-2,8.96-1.26 c4.45,1.1,7.67,5.19,9.19,9.57C37.91,23.88,38.12,28.36,36.34,32.11z"/><path fill="#010101" d="M44.603,19.969c-0.452-2.24-1.272-4.505-2.421-6.483c-1.158-1.993-2.787-3.765-4.531-5.261 c-5.273-4.524-12.42-6.388-19.114-4.229c-2.135,0.689-4.152,1.722-6.004,2.985c-2.013,1.372-3.914,2.974-5.392,4.921 c-2.474,3.26-3.224,7.181-3.598,11.165c-0.212,2.261-0.27,4.573,0.216,6.805c0.506,2.324,1.703,4.245,3.277,5.998 c3.096,3.45,6.679,7.061,11.206,8.508c1.079,0.345,2.201,0.524,3.334,0.529c4.465,0.042,8.807-0.866,12.713-3.092 c3.742-2.132,6.827-5.338,8.668-9.243C44.798,28.671,45.459,24.214,44.603,19.969z M21.358,40.564 c-0.221-3.289-3.337-4.641-5.904-5.953c-2.464-1.303-3.969-3.818-4.693-6.442c-0.789-2.859-0.65-5.884,0.483-8.634 c1.218-2.958,3.445-5.306,6.221-6.859c2.962-1.656,6.572-2.673,9.936-1.771c5.817,1.56,9.157,8.084,9.654,13.685 c0.306,3.451-0.498,6.723-2.508,9.556c-1.801,2.537-4.059,4.905-6.575,6.742c-1.411,1.03-2.948,1.912-4.593,2.511 c-0.374,0.136-0.754,0.261-1.138,0.367c-0.164,0.045-0.391,0.136-0.564,0.126c-0.424-0.027-0.448-0.253-0.445-0.62 C21.241,42.367,21.419,41.472,21.358,40.564z M43.112,29.423c-2.447,8-9.833,13.438-18.024,14.343 c0.561-0.266,1.111-0.551,1.635-0.86c2.919-1.719,5.395-4.13,7.527-6.742c1.128-1.383,2.156-2.848,2.835-4.507 c0.678-1.658,1.001-3.448,1.035-5.236c0.117-6.147-3.053-13.385-8.963-15.953c-3.265-1.418-6.932-0.989-10.147,0.353 c-3.191,1.331-5.982,3.467-7.756,6.468c-1.641,2.777-2.3,6.017-1.854,9.211c0.402,2.876,1.621,5.834,3.836,7.788 c0.524,0.462,1.096,0.86,1.714,1.186c1.286,0.658,2.661,1.247,3.784,2.172c0.551,0.454,1.052,1.001,1.337,1.664 c0.369,0.857,0.321,1.808,0.251,2.717c-0.041,0.532-0.176,1.203-0.065,1.778c-4.015-0.553-7.455-3.44-10.219-6.229 c-1.596-1.61-3.336-3.268-4.384-5.305c-0.987-1.919-1.27-4.111-1.267-6.245c0.004-2.044,0.216-4.114,0.555-6.129 c0.302-1.797,0.785-3.57,1.617-5.198c2.02-3.953,5.911-6.942,9.868-8.801c3.093-1.453,6.54-2.115,9.946-1.721 c2.971,0.344,5.844,1.458,8.344,3.085c3.669,2.389,6.612,5.826,8.07,9.972C44.185,21.214,44.351,25.373,43.112,29.423z"/></svg>